<svg width="56" height="56" viewBox="0 0 56 56" fill="none" xmlns="http://www.w3.org/2000/svg">
<rect width="56" height="56" rx="20" fill="#283B4C"/>
<path d="M32.44 19.1001C30.63 19.1001 29.01 19.9801 28 21.3301C26.99 19.9801 25.37 19.1001 23.56 19.1001C20.49 19.1001 18 21.6001 18 24.6901C18 25.8801 18.19 26.9801 18.52 28.0001C20.1 33.0001 24.97 35.9901 27.38 36.8101C27.72 36.9301 28.28 36.9301 28.62 36.8101C31.03 35.9901 35.9 33.0001 37.48 28.0001C37.81 26.9801 38 25.8801 38 24.6901C38 21.6001 35.51 19.1001 32.44 19.1001Z" fill="#FF3B30"/>
</svg>
