<svg width="44" height="44" viewBox="0 0 44 44" fill="none" xmlns="http://www.w3.org/2000/svg">
<rect width="44" height="44" rx="15" fill="#283B4C"/>
<path d="M24.43 28.8201C24.24 28.8201 24.05 28.7501 23.9 28.6001C23.61 28.3101 23.61 27.8301 23.9 27.5401L29.44 22.0001L23.9 16.4601C23.61 16.1701 23.61 15.6901 23.9 15.4001C24.19 15.1101 24.67 15.1101 24.96 15.4001L31.03 21.4701C31.32 21.7601 31.32 22.2401 31.03 22.5301L24.96 28.6001C24.81 28.7501 24.62 28.8201 24.43 28.8201Z" fill="white"/>
<path d="M30.33 22.75H13.5C13.09 22.75 12.75 22.41 12.75 22C12.75 21.59 13.09 21.25 13.5 21.25H30.33C30.74 21.25 31.08 21.59 31.08 22C31.08 22.41 30.74 22.75 30.33 22.75Z" fill="white"/>
</svg>
