<svg width="44" height="45" viewBox="0 0 44 45" fill="none" xmlns="http://www.w3.org/2000/svg">
<rect y="0.50293" width="44" height="44" rx="15" fill="#1C2C3B"/>
<path d="M24.43 29.323C24.24 29.323 24.05 29.253 23.9 29.103C23.61 28.813 23.61 28.333 23.9 28.043L29.44 22.503L23.9 16.963C23.61 16.673 23.61 16.193 23.9 15.903C24.19 15.613 24.67 15.613 24.96 15.903L31.03 21.973C31.32 22.263 31.32 22.743 31.03 23.033L24.96 29.103C24.81 29.253 24.62 29.323 24.43 29.323Z" fill="white"/>
<path d="M30.33 23.2529H13.5C13.09 23.2529 12.75 22.9129 12.75 22.5029C12.75 22.0929 13.09 21.7529 13.5 21.7529H30.33C30.74 21.7529 31.08 22.0929 31.08 22.5029C31.08 22.9129 30.74 23.2529 30.33 23.2529Z" fill="white"/>
</svg>
