<svg width="32" height="33" viewBox="0 0 32 33" fill="none" xmlns="http://www.w3.org/2000/svg">
<path d="M30.0014 17.164C30.0014 16.0129 29.9061 15.1729 29.6998 14.3018H16.2871V19.4973H24.1601C24.0014 20.7884 23.1443 22.7329 21.2395 24.0394L21.2128 24.2134L25.4536 27.433L25.7474 27.4618C28.4458 25.0195 30.0014 21.4262 30.0014 17.164Z" fill="#4285F4"/>
<path d="M16.2862 30.8528C20.1433 30.8528 23.3814 29.6083 25.7465 27.4617L21.2386 24.0393C20.0322 24.8638 18.4132 25.4393 16.2862 25.4393C12.5085 25.4393 9.30219 22.9972 8.15923 19.6216L7.9917 19.6355L3.58202 22.98L3.52435 23.1371C5.87353 27.7105 10.6989 30.8528 16.2862 30.8528Z" fill="#34A853"/>
<path d="M8.16007 19.622C7.85848 18.7509 7.68395 17.8175 7.68395 16.8531C7.68395 15.8886 7.85849 14.9553 8.1442 14.0842L8.13621 13.8987L3.67126 10.5005L3.52518 10.5686C2.55696 12.4664 2.0014 14.5975 2.0014 16.8531C2.0014 19.1086 2.55696 21.2397 3.52518 23.1375L8.16007 19.622Z" fill="#FBBC05"/>
<path d="M16.2863 8.26632C18.9688 8.26632 20.7783 9.40187 21.8101 10.3508L25.8418 6.49303C23.3657 4.23748 20.1434 2.85303 16.2863 2.85303C10.699 2.85303 5.87354 5.99522 3.52435 10.5685L8.14339 14.0841C9.30223 10.7086 12.5086 8.26632 16.2863 8.26632Z" fill="#EB4335"/>
</svg>
