<svg width="44" height="45" viewBox="0 0 44 45" fill="none" xmlns="http://www.w3.org/2000/svg">
<rect y="0.50293" width="44" height="44" rx="15" fill="#1C2C3B"/>
<path d="M19.5699 29.323C19.3799 29.323 19.1899 29.253 19.0399 29.103L12.9699 23.033C12.6799 22.743 12.6799 22.263 12.9699 21.973L19.0399 15.903C19.3299 15.613 19.8099 15.613 20.0999 15.903C20.3899 16.193 20.3899 16.673 20.0999 16.963L14.5599 22.503L20.0999 28.043C20.3899 28.333 20.3899 28.813 20.0999 29.103C19.9599 29.253 19.7599 29.323 19.5699 29.323Z" fill="white"/>
<path d="M30.5 23.2529H13.67C13.26 23.2529 12.92 22.9129 12.92 22.5029C12.92 22.0929 13.26 21.7529 13.67 21.7529H30.5C30.91 21.7529 31.25 22.0929 31.25 22.5029C31.25 22.9129 30.91 23.2529 30.5 23.2529Z" fill="white"/>
</svg>
