<svg width="44" height="44" viewBox="0 0 44 44" fill="none" xmlns="http://www.w3.org/2000/svg">
<rect width="44" height="44" rx="15" fill="#283B4C"/>
<path d="M19.5699 28.8201C19.3799 28.8201 19.1899 28.7501 19.0399 28.6001L12.9699 22.5301C12.6799 22.2401 12.6799 21.7601 12.9699 21.4701L19.0399 15.4001C19.3299 15.1101 19.8099 15.1101 20.0999 15.4001C20.3899 15.6901 20.3899 16.1701 20.0999 16.4601L14.5599 22.0001L20.0999 27.5401C20.3899 27.8301 20.3899 28.3101 20.0999 28.6001C19.9599 28.7501 19.7599 28.8201 19.5699 28.8201Z" fill="white"/>
<path d="M30.5 22.75H13.67C13.26 22.75 12.92 22.41 12.92 22C12.92 21.59 13.26 21.25 13.67 21.25H30.5C30.91 21.25 31.25 21.59 31.25 22C31.25 22.41 30.91 22.75 30.5 22.75Z" fill="white"/>
</svg>
