<svg width="48" height="48" viewBox="0 0 48 48" fill="none" xmlns="http://www.w3.org/2000/svg">
<rect width="48" height="48" rx="10" fill="#283B4C"/>
<path d="M24.02 32.5299C21.69 32.5299 19.36 32.1599 17.15 31.4199C16.31 31.1299 15.67 30.5399 15.39 29.7699C15.1 28.9999 15.2 28.1499 15.66 27.3899L16.81 25.4799C17.05 25.0799 17.27 24.2799 17.27 23.8099V20.9199C17.27 17.1999 20.3 14.1699 24.02 14.1699C27.74 14.1699 30.77 17.1999 30.77 20.9199V23.8099C30.77 24.2699 30.99 25.0799 31.23 25.4899L32.37 27.3899C32.8 28.1099 32.88 28.9799 32.59 29.7699C32.3 30.5599 31.67 31.1599 30.88 31.4199C28.68 32.1599 26.35 32.5299 24.02 32.5299ZM24.02 15.6699C21.13 15.6699 18.77 18.0199 18.77 20.9199V23.8099C18.77 24.5399 18.47 25.6199 18.1 26.2499L16.95 28.1599C16.73 28.5299 16.67 28.9199 16.8 29.2499C16.92 29.5899 17.22 29.8499 17.63 29.9899C21.81 31.3899 26.24 31.3899 30.42 29.9899C30.78 29.8699 31.06 29.5999 31.19 29.2399C31.32 28.8799 31.29 28.4899 31.09 28.1599L29.94 26.2499C29.56 25.5999 29.27 24.5299 29.27 23.7999V20.9199C29.27 18.0199 26.92 15.6699 24.02 15.6699Z" fill="white"/>
<path d="M25.88 15.9402C25.81 15.9402 25.74 15.9302 25.67 15.9102C25.38 15.8302 25.1 15.7702 24.83 15.7302C23.98 15.6202 23.16 15.6802 22.39 15.9102C22.11 16.0002 21.81 15.9102 21.62 15.7002C21.43 15.4902 21.37 15.1902 21.48 14.9202C21.89 13.8702 22.89 13.1802 24.03 13.1802C25.17 13.1802 26.17 13.8602 26.58 14.9202C26.68 15.1902 26.63 15.4902 26.44 15.7002C26.29 15.8602 26.08 15.9402 25.88 15.9402Z" fill="white"/>
<path d="M24.02 34.8101C23.03 34.8101 22.07 34.4101 21.37 33.7101C20.67 33.0101 20.27 32.0501 20.27 31.0601H21.77C21.77 31.6501 22.01 32.2301 22.43 32.6501C22.85 33.0701 23.43 33.3101 24.02 33.3101C25.26 33.3101 26.27 32.3001 26.27 31.0601H27.77C27.77 33.1301 26.09 34.8101 24.02 34.8101Z" fill="white"/>
</svg>
