<svg width="25" height="25" viewBox="0 0 25 25" fill="none" xmlns="http://www.w3.org/2000/svg">
<path d="M12.4998 23.1033C12.2598 23.1033 12.0199 23.0734 11.7899 23.0034C6.59986 21.5734 2.83984 16.7233 2.83984 11.4633V7.0733C2.83984 5.9533 3.64985 4.74335 4.68985 4.31335L10.2599 2.03332C11.7099 1.44332 13.2998 1.44332 14.7398 2.03332L20.3098 4.31335C21.3498 4.74335 22.1599 5.9533 22.1599 7.0733V11.4633C22.1599 16.7133 18.3898 21.5634 13.2098 23.0034C12.9798 23.0734 12.7398 23.1033 12.4998 23.1033ZM12.4998 3.10333C11.9298 3.10333 11.3698 3.21334 10.8298 3.43334L5.25986 5.71331C4.77986 5.91331 4.33984 6.56331 4.33984 7.08331V11.4733C4.33984 16.0633 7.63985 20.3033 12.1898 21.5633C12.3898 21.6233 12.6098 21.6233 12.8098 21.5633C17.3598 20.3033 20.6599 16.0633 20.6599 11.4733V7.08331C20.6599 6.56331 20.2198 5.91331 19.7398 5.71331L14.1699 3.43334C13.6299 3.21334 13.0698 3.10333 12.4998 3.10333Z" fill="#7791A9"/>
<path d="M12.5 13.603C10.98 13.603 9.75 12.373 9.75 10.853C9.75 9.33303 10.98 8.10303 12.5 8.10303C14.02 8.10303 15.25 9.33303 15.25 10.853C15.25 12.373 14.02 13.603 12.5 13.603ZM12.5 9.60303C11.81 9.60303 11.25 10.163 11.25 10.853C11.25 11.543 11.81 12.103 12.5 12.103C13.19 12.103 13.75 11.543 13.75 10.853C13.75 10.163 13.19 9.60303 12.5 9.60303Z" fill="#7791A9"/>
<path d="M12.5 16.603C12.09 16.603 11.75 16.263 11.75 15.853V12.853C11.75 12.443 12.09 12.103 12.5 12.103C12.91 12.103 13.25 12.443 13.25 12.853V15.853C13.25 16.263 12.91 16.603 12.5 16.603Z" fill="#7791A9"/>
</svg>
