<svg width="72" height="48" viewBox="0 0 72 48" fill="none" xmlns="http://www.w3.org/2000/svg">
<rect width="72" height="48" rx="10" fill="#283B4C"/>
<path d="M43 34.75C42.59 34.75 42.25 34.41 42.25 34V23C42.25 22.59 42.59 22.25 43 22.25C43.41 22.25 43.75 22.59 43.75 23V34C43.75 34.41 43.41 34.75 43 34.75Z" fill="white"/>
<path d="M43 19.75C42.59 19.75 42.25 19.41 42.25 19V14C42.25 13.59 42.59 13.25 43 13.25C43.41 13.25 43.75 13.59 43.75 14V19C43.75 19.41 43.41 19.75 43 19.75Z" fill="white"/>
<path d="M36 34.75C35.59 34.75 35.25 34.41 35.25 34V29C35.25 28.59 35.59 28.25 36 28.25C36.41 28.25 36.75 28.59 36.75 29V34C36.75 34.41 36.41 34.75 36 34.75Z" fill="white"/>
<path d="M36 25.75C35.59 25.75 35.25 25.41 35.25 25V14C35.25 13.59 35.59 13.25 36 13.25C36.41 13.25 36.75 13.59 36.75 14V25C36.75 25.41 36.41 25.75 36 25.75Z" fill="white"/>
<path d="M29 34.75C28.59 34.75 28.25 34.41 28.25 34V23C28.25 22.59 28.59 22.25 29 22.25C29.41 22.25 29.75 22.59 29.75 23V34C29.75 34.41 29.41 34.75 29 34.75Z" fill="white"/>
<path d="M29 19.75C28.59 19.75 28.25 19.41 28.25 19V14C28.25 13.59 28.59 13.25 29 13.25C29.41 13.25 29.75 13.59 29.75 14V19C29.75 19.41 29.41 19.75 29 19.75Z" fill="white"/>
<path d="M31 23.75H27C26.59 23.75 26.25 23.41 26.25 23C26.25 22.59 26.59 22.25 27 22.25H31C31.41 22.25 31.75 22.59 31.75 23C31.75 23.41 31.41 23.75 31 23.75Z" fill="white"/>
<path d="M45 23.75H41C40.59 23.75 40.25 23.41 40.25 23C40.25 22.59 40.59 22.25 41 22.25H45C45.41 22.25 45.75 22.59 45.75 23C45.75 23.41 45.41 23.75 45 23.75Z" fill="white"/>
<path d="M38 25.75H34C33.59 25.75 33.25 25.41 33.25 25C33.25 24.59 33.59 24.25 34 24.25H38C38.41 24.25 38.75 24.59 38.75 25C38.75 25.41 38.41 25.75 38 25.75Z" fill="white"/>
</svg>
