<svg width="20" height="20" viewBox="0 0 20 20" fill="none" xmlns="http://www.w3.org/2000/svg">
<path d="M8.56899 1.45983C9.20778 0.363079 10.7922 0.363079 11.431 1.45983L13.5121 5.03282C13.7461 5.43458 14.1382 5.71947 14.5926 5.81787L18.6338 6.69297C19.8743 6.96159 20.3639 8.46848 19.5182 9.41492L16.7632 12.4983C16.4534 12.845 16.3036 13.3059 16.3505 13.7685L16.767 17.8823C16.8949 19.1451 15.613 20.0764 14.4516 19.5646L10.6678 17.8972C10.2423 17.7097 9.75766 17.7097 9.3322 17.8972L5.54842 19.5646C4.38697 20.0764 3.10514 19.1451 3.23299 17.8823L3.64951 13.7685C3.69635 13.3059 3.54658 12.845 3.23679 12.4983L0.481763 9.41492C-0.363907 8.46848 0.125709 6.96159 1.36618 6.69297L5.40738 5.81787C5.86179 5.71947 6.2539 5.43458 6.48791 5.03282L8.56899 1.45983Z" fill="#FFA600"/>
</svg>
