<svg width="44" height="44" viewBox="0 0 44 44" fill="none" xmlns="http://www.w3.org/2000/svg">
<path d="M37.8032 23.9615C37.1066 23.9615 36.5199 23.4298 36.4282 22.7331C35.9882 18.5898 33.7516 14.8315 30.3049 12.4481C29.6816 12.0081 29.5349 11.1648 29.9566 10.5415C30.3966 9.91816 31.2582 9.77149 31.8632 10.1931C35.9699 13.0348 38.6099 17.5081 39.1416 22.4398C39.2149 23.1915 38.6832 23.8698 37.9132 23.9615C37.8949 23.9615 37.8399 23.9615 37.8032 23.9615Z" fill="white"/>
<path d="M6.3984 24.0535C6.3434 24.0535 6.30674 24.0535 6.25174 24.0535C5.50007 23.9618 4.95007 23.2835 5.0234 22.5318C5.5184 17.6001 8.14007 13.1451 12.1917 10.2668C12.8151 9.82681 13.6767 9.97348 14.1167 10.5968C14.5567 11.2201 14.4101 12.0818 13.7867 12.5218C10.3767 14.9235 8.17674 18.6818 7.75507 22.8251C7.70007 23.5218 7.09507 24.0535 6.3984 24.0535Z" fill="white"/>
<path d="M22.11 41.4519C19.3967 41.4519 16.8117 40.8286 14.3917 39.6186C13.7134 39.2702 13.4384 38.4452 13.7867 37.7669C14.135 37.0886 14.96 36.8136 15.6384 37.1619C19.5984 39.1602 24.365 39.1969 28.3617 37.2719C29.04 36.9419 29.865 37.2352 30.195 37.9136C30.525 38.5919 30.2317 39.4169 29.5534 39.7469C27.2067 40.8836 24.7134 41.4519 22.11 41.4519Z" fill="white"/>
<path d="M22.1101 15.4736C18.5351 15.4736 15.6384 12.5769 15.6384 9.00194C15.6384 5.42694 18.5351 2.53027 22.1101 2.53027C25.6851 2.53027 28.5818 5.42694 28.5818 9.00194C28.5818 12.5769 25.6668 15.4736 22.1101 15.4736ZM22.1101 5.2986C20.0568 5.2986 18.3884 6.96694 18.3884 9.02027C18.3884 11.0736 20.0568 12.7419 22.1101 12.7419C24.1634 12.7419 25.8318 11.0736 25.8318 9.02027C25.8318 6.96694 24.1451 5.2986 22.1101 5.2986Z" fill="white"/>
<path d="M8.85497 37.895C5.27997 37.895 2.3833 34.9983 2.3833 31.4233C2.3833 27.8667 5.27997 24.9517 8.85497 24.9517C12.43 24.9517 15.3266 27.8483 15.3266 31.4233C15.3266 34.98 12.43 37.895 8.85497 37.895ZM8.85497 27.7017C6.80163 27.7017 5.1333 29.37 5.1333 31.4233C5.1333 33.4767 6.80163 35.145 8.85497 35.145C10.9083 35.145 12.5766 33.4767 12.5766 31.4233C12.5766 29.37 10.9083 27.7017 8.85497 27.7017Z" fill="white"/>
<path d="M35.145 37.895C31.57 37.895 28.6733 34.9983 28.6733 31.4233C28.6733 27.8667 31.57 24.9517 35.145 24.9517C38.72 24.9517 41.6167 27.8483 41.6167 31.4233C41.5983 34.98 38.7017 37.895 35.145 37.895ZM35.145 27.7017C33.0917 27.7017 31.4233 29.37 31.4233 31.4233C31.4233 33.4767 33.0917 35.145 35.145 35.145C37.1983 35.145 38.8667 33.4767 38.8667 31.4233C38.8483 29.37 37.1983 27.7017 35.145 27.7017Z" fill="white"/>
</svg>
