<svg width="60" height="60" viewBox="0 0 60 60" fill="none" xmlns="http://www.w3.org/2000/svg">
<g filter="url(#filter0_di_2890_904)">
<path d="M28.13 33.0099L27.1 31.9799L28.09 30.9899C28.38 30.6999 28.38 30.2199 28.09 29.9299C27.8 29.6399 27.32 29.6399 27.03 29.9299L26.04 30.9199L25.08 29.9599C24.79 29.6699 24.31 29.6699 24.02 29.9599C23.73 30.2499 23.73 30.7299 24.02 31.0199L24.98 31.9799L23.99 32.9699C23.7 33.2599 23.7 33.7399 23.99 34.0299C24.14 34.1799 24.33 34.2499 24.52 34.2499C24.71 34.2499 24.9 34.1799 25.05 34.0299L26.04 33.0399L27.07 34.0699C27.22 34.2199 27.41 34.2899 27.6 34.2899C27.79 34.2899 27.98 34.2199 28.13 34.0699C28.42 33.7799 28.42 33.2999 28.13 33.0099Z" fill="white"/>
<path d="M31.54 33C30.99 33 30.53 32.55 30.53 32C30.53 31.45 30.97 31 31.52 31H31.54C32.09 31 32.54 31.45 32.54 32C32.54 32.55 32.1 33 31.54 33Z" fill="white"/>
<path d="M35.48 33C34.93 33 34.47 32.55 34.47 32C34.47 31.45 34.91 31 35.46 31H35.48C36.03 31 36.48 31.45 36.48 32C36.48 32.55 36.04 33 35.48 33Z" fill="white"/>
<path d="M33.5 34.97C32.95 34.97 32.5 34.53 32.5 33.98V33.96C32.5 33.41 32.95 32.96 33.5 32.96C34.05 32.96 34.5 33.41 34.5 33.96C34.5 34.51 34.06 34.97 33.5 34.97Z" fill="white"/>
<path d="M33.5 31.03C32.95 31.03 32.5 30.59 32.5 30.04V30.02C32.5 29.47 32.95 29.02 33.5 29.02C34.05 29.02 34.5 29.47 34.5 30.02C34.5 30.57 34.06 31.03 33.5 31.03Z" fill="white"/>
<path opacity="0.4" d="M40 29.0702V34.6502C40 37.6002 37.6 40.0002 34.65 40.0002H25.35C22.4 40.0002 20 37.6002 20 34.6502V29.0702C20 26.1202 22.4 23.7202 25.35 23.7202H34.65C37.6 23.7202 40 26.1202 40 29.0702Z" fill="white"/>
<path d="M31.64 20.71L31.63 21.65C31.62 22.53 30.89 23.26 30 23.26C29.85 23.26 29.76 23.36 29.76 23.49C29.76 23.62 29.86 23.72 29.99 23.72H28.38C28.37 23.65 28.36 23.57 28.36 23.49C28.36 22.59 29.09 21.86 29.98 21.86C30.13 21.86 30.23 21.76 30.23 21.63L30.24 20.69C30.25 20.31 30.56 20 30.94 20H30.95C31.34 20 31.64 20.32 31.64 20.71Z" fill="white"/>
</g>
<defs>
<filter id="filter0_di_2890_904" x="-2" y="-2" width="64" height="64" filterUnits="userSpaceOnUse" color-interpolation-filters="sRGB">
<feFlood flood-opacity="0" result="BackgroundImageFix"/>
<feColorMatrix in="SourceAlpha" type="matrix" values="0 0 0 0 0 0 0 0 0 0 0 0 0 0 0 0 0 0 127 0" result="hardAlpha"/>
<feOffset/>
<feGaussianBlur stdDeviation="10"/>
<feComposite in2="hardAlpha" operator="out"/>
<feColorMatrix type="matrix" values="0 0 0 0 1 0 0 0 0 1 0 0 0 0 1 0 0 0 0.35 0"/>
<feBlend mode="normal" in2="BackgroundImageFix" result="effect1_dropShadow_2890_904"/>
<feBlend mode="normal" in="SourceGraphic" in2="effect1_dropShadow_2890_904" result="shape"/>
<feColorMatrix in="SourceAlpha" type="matrix" values="0 0 0 0 0 0 0 0 0 0 0 0 0 0 0 0 0 0 127 0" result="hardAlpha"/>
<feOffset dy="4"/>
<feGaussianBlur stdDeviation="2"/>
<feComposite in2="hardAlpha" operator="arithmetic" k2="-1" k3="1"/>
<feColorMatrix type="matrix" values="0 0 0 0 0 0 0 0 0 0 0 0 0 0 0 0 0 0 0.25 0"/>
<feBlend mode="normal" in2="shape" result="effect2_innerShadow_2890_904"/>
</filter>
</defs>
</svg>
