<svg width="205" height="51" viewBox="0 0 205 51" fill="none" xmlns="http://www.w3.org/2000/svg">
<path d="M36.5552 22.9522C35.3617 22.9522 34.3977 23.9576 34.3977 25.183C34.3977 26.4084 35.3617 27.3981 36.5552 27.3981C37.7487 27.3981 38.728 26.4084 38.728 25.183C38.728 23.9576 37.7487 22.9522 36.5552 22.9522ZM36.5552 22.9522C35.3617 22.9522 34.3977 23.9576 34.3977 25.183C34.3977 26.4084 35.3617 27.3981 36.5552 27.3981C37.7487 27.3981 38.728 26.4084 38.728 25.183C38.728 23.9576 37.7487 22.9522 36.5552 22.9522ZM36.5552 22.9522C35.3617 22.9522 34.3977 23.9576 34.3977 25.183C34.3977 26.4084 35.3617 27.3981 36.5552 27.3981C37.7487 27.3981 38.728 26.4084 38.728 25.183C38.728 23.9576 37.7487 22.9522 36.5552 22.9522ZM35.5453 36.8869C35.2087 36.6512 34.7496 36.7455 34.5201 37.0911C34.3059 37.4524 34.3977 37.908 34.7343 38.1437C35.071 38.3793 35.5147 38.2851 35.7442 37.9394C35.9737 37.5781 35.8819 37.1225 35.5453 36.8869ZM35.0863 34.5775C34.7496 34.3419 34.2906 34.4361 34.061 34.7817C33.8315 35.1274 33.9233 35.5987 34.26 35.8343C34.6119 36.0543 35.0557 35.96 35.2852 35.6144C35.5147 35.2688 35.4229 34.7975 35.0863 34.5775ZM33.2807 37.3425C32.944 37.1225 32.485 37.2168 32.2708 37.5624C32.0413 37.908 32.1331 38.3793 32.4697 38.5993C32.8063 38.8349 33.2654 38.7406 33.4949 38.395C33.7091 38.0494 33.6173 37.5781 33.2807 37.3425ZM32.8216 35.0331C32.485 34.7975 32.0259 34.8917 31.8117 35.2373C31.5822 35.583 31.674 36.0543 32.0106 36.2899C32.3473 36.5256 32.8063 36.4313 33.0205 36.07C33.2501 35.7243 33.1583 35.2688 32.8216 35.0331ZM28.6443 32.2682L27.5426 31.5612L28.2465 30.4458C28.3383 30.2887 28.2924 30.0845 28.1394 29.9902L27.6344 29.6603C27.4967 29.5504 27.2825 29.5975 27.1907 29.7546L26.5021 30.87L25.4157 30.163C25.2627 30.0688 25.0638 30.1159 24.9719 30.273L24.6506 30.7757C24.5588 30.9328 24.6047 31.1371 24.7424 31.247L25.8288 31.954L25.1403 33.0694C25.0485 33.2265 25.0944 33.4307 25.2474 33.525L25.7523 33.8549C25.89 33.9491 26.089 33.902 26.1961 33.7449L26.8846 32.6295L27.971 33.3521C28.1241 33.4464 28.323 33.3993 28.4148 33.2422L28.7361 32.7238C28.8279 32.5667 28.782 32.3624 28.6443 32.2682ZM28.6443 32.2682L27.5426 31.5612L28.2465 30.4458C28.3383 30.2887 28.2924 30.0845 28.1394 29.9902L27.6344 29.6603C27.4967 29.5504 27.2825 29.5975 27.1907 29.7546L26.5021 30.87L25.4157 30.163C25.2627 30.0688 25.0638 30.1159 24.9719 30.273L24.6506 30.7757C24.5588 30.9328 24.6047 31.1371 24.7424 31.247L25.8288 31.954L25.1403 33.0694C25.0485 33.2265 25.0944 33.4307 25.2474 33.525L25.7523 33.8549C25.89 33.9491 26.089 33.902 26.1961 33.7449L26.8846 32.6295L27.971 33.3521C28.1241 33.4464 28.323 33.3993 28.4148 33.2422L28.7361 32.7238C28.8279 32.5667 28.782 32.3624 28.6443 32.2682ZM32.8216 35.0331C32.485 34.7975 32.0259 34.8917 31.8117 35.2373C31.5822 35.583 31.674 36.0543 32.0106 36.2899C32.3473 36.5256 32.8063 36.4313 33.0205 36.07C33.2501 35.7243 33.1583 35.2688 32.8216 35.0331ZM33.2807 37.3425C32.944 37.1225 32.485 37.2168 32.2708 37.5624C32.0413 37.908 32.1331 38.3793 32.4697 38.5993C32.8063 38.8349 33.2654 38.7406 33.4949 38.395C33.7091 38.0494 33.6173 37.5781 33.2807 37.3425ZM35.0863 34.5775C34.7496 34.3419 34.2906 34.4361 34.061 34.7817C33.8315 35.1274 33.9233 35.5987 34.26 35.8343C34.6119 36.0543 35.0557 35.96 35.2852 35.6144C35.5147 35.2688 35.4229 34.7975 35.0863 34.5775ZM35.5453 36.8869C35.2087 36.6512 34.7496 36.7455 34.5201 37.0911C34.3059 37.4524 34.3977 37.908 34.7343 38.1437C35.071 38.3793 35.5147 38.2851 35.7442 37.9394C35.9737 37.5781 35.8819 37.1225 35.5453 36.8869ZM36.5552 22.9522C35.3617 22.9522 34.3977 23.9576 34.3977 25.183C34.3977 26.4084 35.3617 27.3981 36.5552 27.3981C37.7487 27.3981 38.728 26.4084 38.728 25.183C38.728 23.9576 37.7487 22.9522 36.5552 22.9522ZM28.6443 32.2682L27.5426 31.5612L28.2465 30.4458C28.3383 30.2887 28.2924 30.0845 28.1394 29.9902L27.6344 29.6603C27.4967 29.5504 27.2825 29.5975 27.1907 29.7546L26.5021 30.87L25.4157 30.163C25.2627 30.0688 25.0638 30.1159 24.9719 30.273L24.6506 30.7757C24.5588 30.9328 24.6047 31.1371 24.7424 31.247L25.8288 31.954L25.1403 33.0694C25.0485 33.2265 25.0944 33.4307 25.2474 33.525L25.7523 33.8549C25.89 33.9491 26.089 33.902 26.1961 33.7449L26.8846 32.6295L27.971 33.3521C28.1241 33.4464 28.323 33.3993 28.4148 33.2422L28.7361 32.7238C28.8279 32.5667 28.782 32.3624 28.6443 32.2682ZM32.8216 35.0331C32.485 34.7975 32.0259 34.8917 31.8117 35.2373C31.5822 35.583 31.674 36.0543 32.0106 36.2899C32.3473 36.5256 32.8063 36.4313 33.0205 36.07C33.2501 35.7243 33.1583 35.2688 32.8216 35.0331ZM33.2807 37.3425C32.944 37.1225 32.485 37.2168 32.2708 37.5624C32.0413 37.908 32.1331 38.3793 32.4697 38.5993C32.8063 38.8349 33.2654 38.7406 33.4949 38.395C33.7091 38.0494 33.6173 37.5781 33.2807 37.3425ZM35.0863 34.5775C34.7496 34.3419 34.2906 34.4361 34.061 34.7817C33.8315 35.1274 33.9233 35.5987 34.26 35.8343C34.6119 36.0543 35.0557 35.96 35.2852 35.6144C35.5147 35.2688 35.4229 34.7975 35.0863 34.5775ZM35.5453 36.8869C35.2087 36.6512 34.7496 36.7455 34.5201 37.0911C34.3059 37.4524 34.3977 37.908 34.7343 38.1437C35.071 38.3793 35.5147 38.2851 35.7442 37.9394C35.9737 37.5781 35.8819 37.1225 35.5453 36.8869ZM36.5552 22.9522C35.3617 22.9522 34.3977 23.9576 34.3977 25.183C34.3977 26.4084 35.3617 27.3981 36.5552 27.3981C37.7487 27.3981 38.728 26.4084 38.728 25.183C38.728 23.9576 37.7487 22.9522 36.5552 22.9522ZM28.3689 0C14.7199 0 3.65692 11.374 3.65692 25.3872C3.65692 30.6972 5.26358 35.6301 7.98725 39.7147C11.8126 40.7201 16.602 39.6832 20.3815 36.1328C19.0809 36.2428 18.1628 36.5413 17.9485 36.6198L16.8162 37.0126L17.2141 35.8657C20.0908 27.7123 26.3797 26.3141 27.8486 26.0942C33.7703 16.2598 42.431 15.1601 42.7982 15.1129L43.2879 15.0501L43.4103 15.5371C43.5174 15.8984 45.782 24.5075 38.728 33.9963C38.9728 35.4259 39.6002 41.8198 33.2195 47.4911L32.2861 48.3237V47.0512C32.2861 46.7998 32.2402 45.7787 31.9035 44.4276C31.9035 44.4276 31.8933 44.4381 31.8729 44.4591C29.9296 46.7213 27.1142 48.8421 23.9008 50.3346C25.3545 50.6016 26.854 50.7587 28.3689 50.7587C42.0331 50.7587 53.0961 39.4005 53.0961 25.3872C53.0961 11.374 42.0331 0 28.3689 0ZM15.5309 11.6725C14.9647 12.2537 14.7505 12.8978 14.6587 13.1963C14.5822 12.8978 14.368 12.238 13.7712 11.6253C13.2051 11.0441 12.5777 10.8398 12.287 10.7456C12.593 10.6513 13.251 10.4 13.8477 9.75586C14.3527 9.20601 14.5669 8.62474 14.6587 8.31054C14.7505 8.62474 14.9801 9.30027 15.6074 9.89725C16.1583 10.4471 16.7397 10.667 17.0458 10.7456C16.755 10.8398 16.1124 11.0598 15.5309 11.6725ZM18.6065 22.4809C18.3617 22.7322 18.2699 22.9993 18.224 23.125C18.1934 22.9993 18.1016 22.7165 17.8414 22.4652C17.5966 22.2138 17.3212 22.1196 17.1988 22.0724C17.3365 22.041 17.6272 21.931 17.872 21.6483C18.1016 21.4126 18.1934 21.1613 18.224 21.0199C18.2699 21.1613 18.3617 21.4597 18.6371 21.7111C18.8666 21.9467 19.1268 22.041 19.2492 22.0724C19.1268 22.1196 18.8513 22.2138 18.6065 22.4809ZM22.7685 11.4368C22.3401 11.861 22.1871 12.348 22.1259 12.5679C22.0647 12.348 21.8963 11.8453 21.4526 11.4054C21.0395 10.9655 20.5651 10.8084 20.3509 10.7456C20.5804 10.6827 21.0701 10.4942 21.5138 10.0229C21.8963 9.59876 22.0494 9.17459 22.1259 8.93894C22.1871 9.17459 22.3554 9.67731 22.8144 10.1172C23.2276 10.5256 23.656 10.6827 23.8855 10.7456C23.6713 10.8084 23.197 10.9812 22.7685 11.4368ZM28.0629 4.03745C27.7721 4.33594 27.6497 4.68155 27.6191 4.83865C27.5732 4.68155 27.4508 4.33594 27.1448 4.00603C26.8387 3.70754 26.5021 3.58186 26.3491 3.55044C26.5174 3.50331 26.8693 3.36192 27.1754 3.03201C27.4508 2.73352 27.5579 2.41933 27.6191 2.26223C27.665 2.41933 27.7874 2.78065 28.1088 3.09485C28.3995 3.37763 28.7055 3.50331 28.8738 3.55044C28.7208 3.59757 28.3842 3.70754 28.0629 4.03745ZM33.8927 8.12202C33.5102 8.53048 33.3572 8.97036 33.296 9.17459C33.2501 8.97036 33.0971 8.51477 32.6839 8.10632C32.2861 7.69786 31.8576 7.55647 31.6587 7.49363C31.8729 7.43079 32.332 7.25798 32.7298 6.8181C33.0818 6.44106 33.2348 6.03261 33.296 5.81267C33.3572 6.03261 33.5255 6.5039 33.9386 6.91236C34.3212 7.2894 34.719 7.43079 34.9332 7.49363C34.7343 7.55647 34.2906 7.71357 33.8927 8.12202ZM36.5552 22.9522C35.3617 22.9522 34.3977 23.9576 34.3977 25.183C34.3977 26.4084 35.3617 27.3981 36.5552 27.3981C37.7487 27.3981 38.728 26.4084 38.728 25.183C38.728 23.9576 37.7487 22.9522 36.5552 22.9522ZM35.5453 36.8869C35.2087 36.6512 34.7496 36.7455 34.5201 37.0911C34.3059 37.4524 34.3977 37.908 34.7343 38.1437C35.071 38.3793 35.5147 38.2851 35.7442 37.9394C35.9737 37.5781 35.8819 37.1225 35.5453 36.8869ZM35.0863 34.5775C34.7496 34.3419 34.2906 34.4361 34.061 34.7817C33.8315 35.1274 33.9233 35.5987 34.26 35.8343C34.6119 36.0543 35.0557 35.96 35.2852 35.6144C35.5147 35.2688 35.4229 34.7975 35.0863 34.5775ZM33.2807 37.3425C32.944 37.1225 32.485 37.2168 32.2708 37.5624C32.0413 37.908 32.1331 38.3793 32.4697 38.5993C32.8063 38.8349 33.2654 38.7406 33.4949 38.395C33.7091 38.0494 33.6173 37.5781 33.2807 37.3425ZM32.8216 35.0331C32.485 34.7975 32.0259 34.8917 31.8117 35.2373C31.5822 35.583 31.674 36.0543 32.0106 36.2899C32.3473 36.5256 32.8063 36.4313 33.0205 36.07C33.2501 35.7243 33.1583 35.2688 32.8216 35.0331ZM28.6443 32.2682L27.5426 31.5612L28.2465 30.4458C28.3383 30.2887 28.2924 30.0845 28.1394 29.9902L27.6344 29.6603C27.4967 29.5504 27.2825 29.5975 27.1907 29.7546L26.5021 30.87L25.4157 30.163C25.2627 30.0688 25.0638 30.1159 24.9719 30.273L24.6506 30.7757C24.5588 30.9328 24.6047 31.1371 24.7424 31.247L25.8288 31.954L25.1403 33.0694C25.0485 33.2265 25.0944 33.4307 25.2474 33.525L25.7523 33.8549C25.89 33.9491 26.089 33.902 26.1961 33.7449L26.8846 32.6295L27.971 33.3521C28.1241 33.4464 28.323 33.3993 28.4148 33.2422L28.7361 32.7238C28.8279 32.5667 28.782 32.3624 28.6443 32.2682ZM36.5552 22.9522C35.3617 22.9522 34.3977 23.9576 34.3977 25.183C34.3977 26.4084 35.3617 27.3981 36.5552 27.3981C37.7487 27.3981 38.728 26.4084 38.728 25.183C38.728 23.9576 37.7487 22.9522 36.5552 22.9522ZM35.5453 36.8869C35.2087 36.6512 34.7496 36.7455 34.5201 37.0911C34.3059 37.4524 34.3977 37.908 34.7343 38.1437C35.071 38.3793 35.5147 38.2851 35.7442 37.9394C35.9737 37.5781 35.8819 37.1225 35.5453 36.8869ZM35.0863 34.5775C34.7496 34.3419 34.2906 34.4361 34.061 34.7817C33.8315 35.1274 33.9233 35.5987 34.26 35.8343C34.6119 36.0543 35.0557 35.96 35.2852 35.6144C35.5147 35.2688 35.4229 34.7975 35.0863 34.5775ZM33.2807 37.3425C32.944 37.1225 32.485 37.2168 32.2708 37.5624C32.0413 37.908 32.1331 38.3793 32.4697 38.5993C32.8063 38.8349 33.2654 38.7406 33.4949 38.395C33.7091 38.0494 33.6173 37.5781 33.2807 37.3425ZM32.8216 35.0331C32.485 34.7975 32.0259 34.8917 31.8117 35.2373C31.5822 35.583 31.674 36.0543 32.0106 36.2899C32.3473 36.5256 32.8063 36.4313 33.0205 36.07C33.2501 35.7243 33.1583 35.2688 32.8216 35.0331ZM28.6443 32.2682L27.5426 31.5612L28.2465 30.4458C28.3383 30.2887 28.2924 30.0845 28.1394 29.9902L27.6344 29.6603C27.4967 29.5504 27.2825 29.5975 27.1907 29.7546L26.5021 30.87L25.4157 30.163C25.2627 30.0688 25.0638 30.1159 24.9719 30.273L24.6506 30.7757C24.5588 30.9328 24.6047 31.1371 24.7424 31.247L25.8288 31.954L25.1403 33.0694C25.0485 33.2265 25.0944 33.4307 25.2474 33.525L25.7523 33.8549C25.89 33.9491 26.089 33.902 26.1961 33.7449L26.8846 32.6295L27.971 33.3521C28.1241 33.4464 28.323 33.3993 28.4148 33.2422L28.7361 32.7238C28.8279 32.5667 28.782 32.3624 28.6443 32.2682ZM36.5552 22.9522C35.3617 22.9522 34.3977 23.9576 34.3977 25.183C34.3977 26.4084 35.3617 27.3981 36.5552 27.3981C37.7487 27.3981 38.728 26.4084 38.728 25.183C38.728 23.9576 37.7487 22.9522 36.5552 22.9522ZM35.5453 36.8869C35.2087 36.6512 34.7496 36.7455 34.5201 37.0911C34.3059 37.4524 34.3977 37.908 34.7343 38.1437C35.071 38.3793 35.5147 38.2851 35.7442 37.9394C35.9737 37.5781 35.8819 37.1225 35.5453 36.8869ZM35.0863 34.5775C34.7496 34.3419 34.2906 34.4361 34.061 34.7817C33.8315 35.1274 33.9233 35.5987 34.26 35.8343C34.6119 36.0543 35.0557 35.96 35.2852 35.6144C35.5147 35.2688 35.4229 34.7975 35.0863 34.5775ZM33.2807 37.3425C32.944 37.1225 32.485 37.2168 32.2708 37.5624C32.0413 37.908 32.1331 38.3793 32.4697 38.5993C32.8063 38.8349 33.2654 38.7406 33.4949 38.395C33.7091 38.0494 33.6173 37.5781 33.2807 37.3425ZM32.8216 35.0331C32.485 34.7975 32.0259 34.8917 31.8117 35.2373C31.5822 35.583 31.674 36.0543 32.0106 36.2899C32.3473 36.5256 32.8063 36.4313 33.0205 36.07C33.2501 35.7243 33.1583 35.2688 32.8216 35.0331ZM28.6443 32.2682L27.5426 31.5612L28.2465 30.4458C28.3383 30.2887 28.2924 30.0845 28.1394 29.9902L27.6344 29.6603C27.4967 29.5504 27.2825 29.5975 27.1907 29.7546L26.5021 30.87L25.4157 30.163C25.2627 30.0688 25.0638 30.1159 24.9719 30.273L24.6506 30.7757C24.5588 30.9328 24.6047 31.1371 24.7424 31.247L25.8288 31.954L25.1403 33.0694C25.0485 33.2265 25.0944 33.4307 25.2474 33.525L25.7523 33.8549C25.89 33.9491 26.089 33.902 26.1961 33.7449L26.8846 32.6295L27.971 33.3521C28.1241 33.4464 28.323 33.3993 28.4148 33.2422L28.7361 32.7238C28.8279 32.5667 28.782 32.3624 28.6443 32.2682ZM35.5453 36.8869C35.2087 36.6512 34.7496 36.7455 34.5201 37.0911C34.3059 37.4524 34.3977 37.908 34.7343 38.1437C35.071 38.3793 35.5147 38.2851 35.7442 37.9394C35.9737 37.5781 35.8819 37.1225 35.5453 36.8869ZM35.0863 34.5775C34.7496 34.3419 34.2906 34.4361 34.061 34.7817C33.8315 35.1274 33.9233 35.5987 34.26 35.8343C34.6119 36.0543 35.0557 35.96 35.2852 35.6144C35.5147 35.2688 35.4229 34.7975 35.0863 34.5775ZM33.2807 37.3425C32.944 37.1225 32.485 37.2168 32.2708 37.5624C32.0413 37.908 32.1331 38.3793 32.4697 38.5993C32.8063 38.8349 33.2654 38.7406 33.4949 38.395C33.7091 38.0494 33.6173 37.5781 33.2807 37.3425ZM32.8216 35.0331C32.485 34.7975 32.0259 34.8917 31.8117 35.2373C31.5822 35.583 31.674 36.0543 32.0106 36.2899C32.3473 36.5256 32.8063 36.4313 33.0205 36.07C33.2501 35.7243 33.1583 35.2688 32.8216 35.0331ZM28.6443 32.2682L27.5426 31.5612L28.2465 30.4458C28.3383 30.2887 28.2924 30.0845 28.1394 29.9902L27.6344 29.6603C27.4967 29.5504 27.2825 29.5975 27.1907 29.7546L26.5021 30.87L25.4157 30.163C25.2627 30.0688 25.0638 30.1159 24.9719 30.273L24.6506 30.7757C24.5588 30.9328 24.6047 31.1371 24.7424 31.247L25.8288 31.954L25.1403 33.0694C25.0485 33.2265 25.0944 33.4307 25.2474 33.525L25.7523 33.8549C25.89 33.9491 26.089 33.902 26.1961 33.7449L26.8846 32.6295L27.971 33.3521C28.1241 33.4464 28.323 33.3993 28.4148 33.2422L28.7361 32.7238C28.8279 32.5667 28.782 32.3624 28.6443 32.2682ZM36.5552 22.9522C35.3617 22.9522 34.3977 23.9576 34.3977 25.183C34.3977 26.4084 35.3617 27.3981 36.5552 27.3981C37.7487 27.3981 38.728 26.4084 38.728 25.183C38.728 23.9576 37.7487 22.9522 36.5552 22.9522ZM36.5552 22.9522C35.3617 22.9522 34.3977 23.9576 34.3977 25.183C34.3977 26.4084 35.3617 27.3981 36.5552 27.3981C37.7487 27.3981 38.728 26.4084 38.728 25.183C38.728 23.9576 37.7487 22.9522 36.5552 22.9522ZM35.5453 36.8869C35.2087 36.6512 34.7496 36.7455 34.5201 37.0911C34.3059 37.4524 34.3977 37.908 34.7343 38.1437C35.071 38.3793 35.5147 38.2851 35.7442 37.9394C35.9737 37.5781 35.8819 37.1225 35.5453 36.8869ZM35.0863 34.5775C34.7496 34.3419 34.2906 34.4361 34.061 34.7817C33.8315 35.1274 33.9233 35.5987 34.26 35.8343C34.6119 36.0543 35.0557 35.96 35.2852 35.6144C35.5147 35.2688 35.4229 34.7975 35.0863 34.5775ZM33.2807 37.3425C32.944 37.1225 32.485 37.2168 32.2708 37.5624C32.0413 37.908 32.1331 38.3793 32.4697 38.5993C32.8063 38.8349 33.2654 38.7406 33.4949 38.395C33.7091 38.0494 33.6173 37.5781 33.2807 37.3425ZM32.8216 35.0331C32.485 34.7975 32.0259 34.8917 31.8117 35.2373C31.5822 35.583 31.674 36.0543 32.0106 36.2899C32.3473 36.5256 32.8063 36.4313 33.0205 36.07C33.2501 35.7243 33.1583 35.2688 32.8216 35.0331ZM28.6443 32.2682L27.5426 31.5612L28.2465 30.4458C28.3383 30.2887 28.2924 30.0845 28.1394 29.9902L27.6344 29.6603C27.4967 29.5504 27.2825 29.5975 27.1907 29.7546L26.5021 30.87L25.4157 30.163C25.2627 30.0688 25.0638 30.1159 24.9719 30.273L24.6506 30.7757C24.5588 30.9328 24.6047 31.1371 24.7424 31.247L25.8288 31.954L25.1403 33.0694C25.0485 33.2265 25.0944 33.4307 25.2474 33.525L25.7523 33.8549C25.89 33.9491 26.089 33.902 26.1961 33.7449L26.8846 32.6295L27.971 33.3521C28.1241 33.4464 28.323 33.3993 28.4148 33.2422L28.7361 32.7238C28.8279 32.5667 28.782 32.3624 28.6443 32.2682ZM36.5552 22.9522C35.3617 22.9522 34.3977 23.9576 34.3977 25.183C34.3977 26.4084 35.3617 27.3981 36.5552 27.3981C37.7487 27.3981 38.728 26.4084 38.728 25.183C38.728 23.9576 37.7487 22.9522 36.5552 22.9522Z" fill="white"/>
<path d="M34.3979 25.183C34.3979 23.9576 35.3619 22.9521 36.5554 22.9521C37.749 22.9521 38.7283 23.9576 38.7283 25.183C38.7283 26.4083 37.749 27.3981 36.5554 27.3981C35.3619 27.3981 34.3979 26.4083 34.3979 25.183Z" fill="white"/>
<path d="M28.6444 32.2674C28.7821 32.3616 28.828 32.5659 28.7362 32.723L28.4149 33.2414C28.3231 33.3985 28.1242 33.4456 27.9712 33.3514L26.8848 32.6287L26.1962 33.7441C26.0891 33.9012 25.8902 33.9483 25.7524 33.8541L25.2475 33.5242C25.0945 33.4299 25.0486 33.2257 25.1404 33.0686L25.829 31.9532L24.7425 31.2462C24.6048 31.1363 24.5589 30.932 24.6507 30.7749L24.9721 30.2722C25.0639 30.1151 25.2628 30.068 25.4158 30.1623L26.5022 30.8692L27.1908 29.7538C27.2826 29.5967 27.4968 29.5496 27.6345 29.6595L28.1395 29.9894C28.2925 30.0837 28.3384 30.2879 28.2466 30.445L27.5427 31.5604L28.6444 32.2674Z" fill="white"/>
<path d="M32.0108 36.2897C31.6742 36.054 31.5824 35.5827 31.8119 35.2371C32.0262 34.8915 32.4852 34.7973 32.8218 35.0329C33.1585 35.2685 33.2503 35.7241 33.0207 36.0698C32.8065 36.4311 32.3475 36.5253 32.0108 36.2897Z" fill="white"/>
<path d="M33.2809 37.3424C33.6175 37.5781 33.7093 38.0494 33.4951 38.395C33.2656 38.7406 32.8065 38.8349 32.4699 38.5992C32.1333 38.3793 32.0415 37.908 32.271 37.5624C32.4852 37.2168 32.9442 37.1225 33.2809 37.3424Z" fill="white"/>
<path d="M34.2601 35.8341C33.9235 35.5985 33.8317 35.1272 34.0612 34.7816C34.2907 34.4359 34.7498 34.3417 35.0864 34.5773C35.4231 34.7973 35.5149 35.2686 35.2854 35.6142C35.0558 35.9598 34.6121 36.0541 34.2601 35.8341Z" fill="white"/>
<path d="M35.5454 36.8864C35.8821 37.1221 35.9739 37.5777 35.7444 37.939C35.5148 38.2846 35.0711 38.3789 34.7345 38.1432C34.3978 37.9076 34.306 37.452 34.5202 37.0906C34.7498 36.745 35.2088 36.6508 35.5454 36.8864Z" fill="white"/>
<path d="M31.4137 42.9354C29.3021 45.716 26.609 47.8054 23.6864 49.1251C23.0591 49.4235 22.4164 49.6749 21.7585 49.8948C14.4443 52.3299 6.1509 50.209 1.34622 42.5897C5.81427 49.0465 12.9754 50.916 19.5244 49.1251C20.4731 48.8737 21.4065 48.5438 22.3093 48.1353C25.5073 46.7057 28.4146 44.3807 30.6027 41.2544C30.9394 41.82 31.2148 42.3855 31.4137 42.9354Z" fill="white"/>
<path d="M13.6486 45.8095C11.1698 45.9351 8.66033 45.5895 6.18149 44.7412C8.81335 46.9249 12.3327 47.6947 15.699 47.2076C16.9997 47.0191 18.2697 46.6421 19.4479 46.0765C21.2688 45.2439 22.8755 43.9714 24.069 42.3062C22.1563 43.5787 20.1365 44.5055 18.0555 45.0868C16.6018 45.511 15.1329 45.7466 13.6486 45.8095Z" fill="white"/>
<path d="M25.4922 36.8397C24.6659 37.6409 23.8244 38.4578 22.9981 39.2747C20.8406 41.3798 18.2546 42.7152 15.5921 43.3279C14.1232 43.6578 12.6389 43.7835 11.1853 43.6735C6.45712 43.3279 0.168195 41.7726 -0.00012207 32.1738C1.04038 40.233 5.70735 41.6312 9.57863 41.9454C10.8334 42.0397 12.0881 41.9611 13.3275 41.7097C16.0818 41.0971 18.7136 39.5732 20.7487 37.1225L21.6515 36.0699C22.7991 36.0856 24.1304 36.2741 25.4922 36.8397Z" fill="white"/>
<path d="M28.7362 32.723L28.4149 33.2414C28.3231 33.3985 28.1242 33.4456 27.9712 33.3514L26.8848 32.6287L26.1962 33.7441C26.0891 33.9012 25.8902 33.9483 25.7524 33.8541L25.2475 33.5242C25.0945 33.4299 25.0486 33.2257 25.1404 33.0686L25.829 31.9532L24.7425 31.2462C24.6048 31.1363 24.5589 30.932 24.6507 30.7749L24.9721 30.2722C25.0639 30.1151 25.2628 30.068 25.4158 30.1623L26.5022 30.8692L27.1908 29.7538C27.2826 29.5967 27.4968 29.5496 27.6345 29.6595L28.1395 29.9894C28.2925 30.0837 28.3384 30.2879 28.2466 30.445L27.5427 31.5604L28.6444 32.2674C28.7821 32.3616 28.828 32.5659 28.7362 32.723Z" fill="white"/>
<path d="M35.2852 35.6142C35.0557 35.9598 34.612 36.0541 34.26 35.8341C33.9234 35.5985 33.8316 35.1272 34.0611 34.7816C34.2906 34.4359 34.7497 34.3417 35.0863 34.5773C35.4229 34.7973 35.5148 35.2686 35.2852 35.6142Z" fill="white"/>
<path d="M33.495 38.395C33.2654 38.7406 32.8064 38.8349 32.4698 38.5992C32.1331 38.3793 32.0413 37.908 32.2709 37.5624C32.4851 37.2168 32.9441 37.1225 33.2808 37.3424C33.6174 37.5781 33.7092 38.0494 33.495 38.395Z" fill="white"/>
<path d="M33.0208 36.0698C32.8066 36.4311 32.3476 36.5253 32.0109 36.2897C31.6743 36.054 31.5825 35.5827 31.812 35.2371C32.0262 34.8915 32.4853 34.7973 32.8219 35.0329C33.1586 35.2685 33.2504 35.7241 33.0208 36.0698Z" fill="white"/>
<path d="M35.7444 37.939C35.5149 38.2846 35.0712 38.3789 34.7345 38.1432C34.3979 37.9076 34.3061 37.452 34.5203 37.0906C34.7499 36.745 35.2089 36.6508 35.5455 36.8864C35.8822 37.1221 35.974 37.5777 35.7444 37.939Z" fill="white"/>
<path d="M38.7283 25.183C38.7283 26.4083 37.749 27.3981 36.5554 27.3981C35.3619 27.3981 34.3979 26.4083 34.3979 25.183C34.3979 23.9576 35.3619 22.9521 36.5554 22.9521C37.749 22.9521 38.7283 23.9576 38.7283 25.183Z" fill="white"/>
<path d="M75.1515 42.2754C73.1776 42.2754 71.4179 41.8355 69.8724 40.9715C68.327 40.1074 67.1335 38.8821 66.2766 37.2797C65.4197 35.693 64.9912 33.8392 64.9912 31.7498V19.1033C64.9912 17.0453 65.4197 15.2072 66.2613 13.5891C67.1029 11.9867 68.2811 10.7456 69.8112 9.88156C71.3261 9.01751 73.0705 8.57764 75.0137 8.57764C76.498 8.57764 77.9057 8.87613 79.2523 9.48881C80.5988 10.1015 81.7005 10.9341 82.5574 11.9867C83.0317 12.5365 83.3837 13.0864 83.6285 13.6519C83.8733 14.2175 83.9804 14.7516 83.9804 15.2701C83.9804 16.1812 83.6744 16.951 83.0776 17.5637C82.4809 18.1764 81.7005 18.4906 80.7518 18.4906C80.2163 18.4906 79.7419 18.3492 79.3135 18.0821C78.885 17.8151 78.4566 17.3752 78.0128 16.7625C77.5385 16.0398 77.0794 15.5214 76.6357 15.2386C76.192 14.9559 75.6564 14.7988 75.0443 14.7988C74.3711 14.7988 73.7743 14.9559 73.2541 15.2701C72.7338 15.5843 72.336 16.0713 72.0299 16.6997C71.7239 17.3281 71.5862 18.1293 71.5862 19.0719V31.7183C71.5862 32.6609 71.7392 33.4464 72.0299 34.0905C72.3207 34.7346 72.7491 35.2059 73.3 35.5201C73.8508 35.8343 74.4782 35.9914 75.1821 35.9914C75.8247 35.9914 76.4062 35.8501 76.8958 35.5516C77.3855 35.2688 77.8904 34.7189 78.426 33.9334C78.8697 33.2893 79.2982 32.8337 79.7266 32.5667C80.155 32.2996 80.6447 32.1582 81.2109 32.1582C82.1595 32.1582 82.9399 32.4724 83.5367 33.0851C84.1335 33.7135 84.4395 34.4676 84.4395 35.3788C84.4395 35.96 84.3018 36.5413 84.0416 37.154C83.7815 37.7667 83.3837 38.3479 82.8481 38.9292C81.93 39.966 80.7977 40.7673 79.4512 41.3485C78.1047 41.9298 76.6816 42.2126 75.1668 42.2126L75.1515 42.2754Z" fill="white"/>
<path d="M96.7419 42.2754C94.7374 42.2754 92.9624 41.8355 91.417 40.9715C89.8715 40.1074 88.678 38.8821 87.8211 37.2797C86.9642 35.693 86.5358 33.8392 86.5358 31.7498V19.1033C86.5358 17.0139 86.9642 15.1601 87.8211 13.5734C88.678 11.9867 89.8715 10.7456 91.417 9.88156C92.9471 9.01751 94.7221 8.57764 96.7419 8.57764C98.7617 8.57764 100.475 9.01751 102.021 9.88156C103.566 10.7456 104.76 11.971 105.617 13.5734C106.474 15.1758 106.902 17.0139 106.902 19.1033V31.7498C106.902 33.8392 106.474 35.693 105.617 37.2797C104.76 38.8821 103.566 40.1074 102.021 40.9715C100.475 41.8355 98.7311 42.2754 96.7419 42.2754ZM96.7419 36.2271C97.4458 36.2271 98.0731 36.07 98.624 35.7558C99.1749 35.4416 99.588 34.9389 99.894 34.2476C100.185 33.5564 100.338 32.7395 100.338 31.7655V19.119C100.338 18.145 100.185 17.3281 99.894 16.6368C99.6033 15.9456 99.1749 15.4586 98.624 15.1287C98.0731 14.7988 97.4458 14.6574 96.7419 14.6574C96.038 14.6574 95.4107 14.8145 94.8598 15.1287C94.309 15.4429 93.8805 15.9456 93.5745 16.6368C93.2685 17.3281 93.1002 18.145 93.1002 19.119V31.7655C93.1002 32.7395 93.2532 33.5564 93.5745 34.2476C93.8805 34.9232 94.309 35.4259 94.8598 35.7558C95.4107 36.0857 96.038 36.2271 96.7419 36.2271Z" fill="white"/>
<path d="M118.99 42.2758C117.69 42.2758 116.404 42.0402 115.15 41.5689C113.895 41.0976 112.824 40.4535 111.936 39.6365C111.232 39.0239 110.682 38.364 110.299 37.6414C109.917 36.9187 109.718 36.1804 109.718 35.4577C109.718 34.5151 110.024 33.7453 110.651 33.1326C111.278 32.5199 112.043 32.2215 112.962 32.2215C113.528 32.2215 114.002 32.3471 114.431 32.6142C114.844 32.8813 115.318 33.3683 115.854 34.0909C116.389 34.8136 116.879 35.332 117.338 35.6148C117.797 35.8976 118.317 36.0547 118.914 36.0547C119.511 36.0547 120.077 35.929 120.536 35.6619C120.995 35.3949 121.347 35.0178 121.607 34.4994C121.852 33.981 121.989 33.384 121.989 32.677C121.989 31.9701 121.791 31.3731 121.408 30.839C121.025 30.3049 120.551 29.8493 119.97 29.4722C119.388 29.0952 118.608 28.6396 117.598 28.1369C116.083 27.2885 114.859 26.5031 113.895 25.7647C112.931 25.042 112.105 24.0366 111.386 22.7798C110.666 21.523 110.314 19.952 110.314 18.0668C110.314 16.1816 110.697 14.5792 111.447 13.1496C112.196 11.72 113.252 10.6046 114.599 9.80341C115.945 9.00221 117.46 8.59375 119.143 8.59375C120.413 8.59375 121.622 8.8294 122.785 9.3007C123.948 9.77199 124.973 10.4318 125.891 11.2801C126.565 11.9243 127.085 12.5841 127.437 13.2596C127.789 13.9508 127.972 14.6264 127.972 15.2862C127.972 16.1973 127.666 16.9671 127.07 17.5798C126.458 18.2082 125.692 18.5067 124.744 18.5067C124.208 18.5067 123.734 18.3653 123.321 18.0668C122.908 17.784 122.433 17.297 121.898 16.6372C121.423 15.946 120.995 15.459 120.612 15.2076C120.23 14.9563 119.786 14.8149 119.281 14.8149C118.807 14.8149 118.394 14.9248 118.042 15.1291C117.69 15.349 117.399 15.6789 117.2 16.1345C117.001 16.5901 116.894 17.1242 116.894 17.7212C116.894 18.4124 117.093 19.0408 117.476 19.5593C117.858 20.0934 118.332 20.549 118.914 20.926C119.495 21.3031 120.276 21.7587 121.286 22.2614C122.8 23.1097 124.04 23.8952 125.004 24.6336C125.983 25.3562 126.809 26.3617 127.513 27.6185C128.202 28.8752 128.554 30.4462 128.554 32.3314C128.554 34.2166 128.141 35.9918 127.33 37.5C126.519 39.0081 125.386 40.1707 123.963 41.0033C122.525 41.8359 120.888 42.2601 119.021 42.2601L118.99 42.2758Z" fill="white"/>
<path d="M135.179 41.8197C134.583 41.8197 134.047 41.6783 133.542 41.3798C133.037 41.0971 132.655 40.72 132.364 40.2644C132.088 39.8088 131.935 39.2904 131.935 38.7249V12.5993C131.935 11.6253 132.287 10.7926 132.976 10.1014C133.665 9.41016 134.506 9.04883 135.485 9.04883C136.465 9.04883 137.245 9.33161 137.918 9.91287C138.592 10.4941 139.081 11.2325 139.387 12.1437L144.529 27.5708H144.972L150.022 12.1437C150.343 11.2325 150.848 10.4941 151.506 9.91287C152.179 9.33161 152.99 9.04883 153.97 9.04883C154.597 9.04883 155.179 9.22164 155.714 9.55154C156.265 9.88145 156.693 10.3213 157.015 10.8555C157.336 11.3896 157.504 11.9709 157.504 12.615V38.7406C157.504 39.6203 157.198 40.3587 156.602 40.9557C155.989 41.5526 155.224 41.8354 154.276 41.8354C153.633 41.8354 153.067 41.694 152.593 41.3955C152.118 41.1128 151.736 40.7357 151.46 40.2801C151.185 39.8245 151.032 39.3061 151.032 38.7406V26.2669H150.588L148.369 33.3678C148.079 34.3418 147.62 35.1273 146.992 35.7086C146.365 36.3055 145.615 36.604 144.728 36.604C143.84 36.604 143.075 36.3055 142.448 35.7086C141.805 35.1116 141.346 34.3418 141.055 33.3678L138.836 26.2669H138.393V38.7406C138.393 39.6203 138.087 40.3587 137.49 40.9557C136.878 41.5526 136.113 41.8354 135.164 41.8354L135.179 41.8197Z" fill="white"/>
<path d="M172.285 42.2754C170.281 42.2754 168.506 41.8355 166.961 40.9715C165.415 40.1074 164.222 38.8821 163.365 37.2797C162.508 35.693 162.079 33.8392 162.079 31.7498V19.1033C162.079 17.0139 162.508 15.1601 163.365 13.5734C164.222 11.9867 165.415 10.7456 166.961 9.88156C168.491 9.01751 170.266 8.57764 172.285 8.57764C174.305 8.57764 176.019 9.01751 177.565 9.88156C179.11 10.7456 180.303 11.971 181.16 13.5734C182.017 15.1758 182.446 17.0139 182.446 19.1033V31.7498C182.446 33.8392 182.017 35.693 181.16 37.2797C180.303 38.8821 179.11 40.1074 177.565 40.9715C176.019 41.8355 174.275 42.2754 172.285 42.2754ZM172.285 36.2271C172.989 36.2271 173.617 36.07 174.168 35.7558C174.718 35.4416 175.132 34.9389 175.438 34.2476C175.728 33.5564 175.881 32.7395 175.881 31.7655V19.119C175.881 18.145 175.728 17.3281 175.438 16.6368C175.147 15.9456 174.718 15.4586 174.168 15.1287C173.617 14.7988 172.989 14.6574 172.285 14.6574C171.582 14.6574 170.954 14.8145 170.403 15.1287C169.853 15.4429 169.424 15.9456 169.118 16.6368C168.812 17.3281 168.644 18.145 168.644 19.119V31.7655C168.644 32.7395 168.797 33.5564 169.118 34.2476C169.424 34.9232 169.853 35.4259 170.403 35.7558C170.954 36.0857 171.582 36.2271 172.285 36.2271Z" fill="white"/>
<path d="M187.893 41.8198C187.006 41.8198 186.24 41.5213 185.613 40.9086C184.97 40.2959 184.664 39.5733 184.664 38.7249C184.664 38.3008 184.741 37.8609 184.894 37.421C185.047 36.9811 185.276 36.4313 185.598 35.7558L191.978 23.1878V26.7854L186.256 15.0815C185.904 14.3903 185.659 13.8247 185.521 13.4006C185.384 12.9764 185.322 12.5522 185.322 12.1281C185.322 11.2797 185.644 10.5571 186.271 9.94438C186.914 9.33169 187.663 9.0332 188.551 9.0332C189.285 9.0332 189.913 9.20601 190.418 9.55163C190.923 9.89725 191.305 10.4471 191.565 11.2169L194.396 17.9093H194.84L197.64 11.2169C197.931 10.4628 198.329 9.89725 198.834 9.55163C199.339 9.20601 199.935 9.0332 200.654 9.0332C201.542 9.0332 202.307 9.33169 202.934 9.94438C203.577 10.5571 203.883 11.2797 203.883 12.1281C203.883 12.5522 203.822 12.9764 203.699 13.4006C203.577 13.8247 203.332 14.3903 202.95 15.0815L197.227 26.7854V23.1878L203.608 35.7558C203.929 36.4313 204.174 36.9811 204.312 37.421C204.465 37.8609 204.541 38.3008 204.541 38.7249C204.541 39.5733 204.22 40.2959 203.592 40.9086C202.95 41.5213 202.2 41.8198 201.312 41.8198C200.654 41.8198 200.088 41.6313 199.583 41.2699C199.078 40.9086 198.65 40.3588 198.298 39.6361L194.84 32.1268H194.396L190.892 39.6361C190.54 40.3588 190.112 40.9086 189.622 41.2699C189.132 41.6313 188.551 41.8198 187.878 41.8198H187.893Z" fill="white"/>
</svg>
