<svg width="20" height="20" viewBox="0 0 20 20" fill="none" xmlns="http://www.w3.org/2000/svg">
<path d="M8.56899 1.4569C9.20778 0.360149 10.7922 0.360149 11.431 1.4569L13.5121 5.02989C13.7461 5.43165 14.1382 5.71654 14.5926 5.81494L18.6338 6.69004C19.8743 6.95866 20.3639 8.46555 19.5182 9.41199L16.7632 12.4953C16.4534 12.842 16.3037 13.303 16.3505 13.7656L16.767 17.8794C16.8949 19.1422 15.613 20.0735 14.4516 19.5617L10.6678 17.8943C10.2423 17.7068 9.75766 17.7068 9.3322 17.8943L5.54842 19.5617C4.38697 20.0735 3.10514 19.1422 3.23299 17.8794L3.64951 13.7656C3.69635 13.303 3.54658 12.842 3.23679 12.4953L0.481763 9.41199C-0.363907 8.46555 0.125709 6.95866 1.36618 6.69004L5.40738 5.81494C5.86179 5.71654 6.2539 5.43165 6.48791 5.02989L8.56899 1.4569Z" fill="#FFA600"/>
</svg>
