<svg width="25" height="25" viewBox="0 0 25 25" fill="none" xmlns="http://www.w3.org/2000/svg">
<path d="M12.5 23.103C11.8 23.103 11.09 22.833 10.56 22.303L8.84998 20.613C8.42998 20.193 7.85001 19.963 7.26001 19.963H6.5C4.43 19.963 2.75 18.293 2.75 16.243V5.32303C2.75 3.27303 4.43 1.60303 6.5 1.60303H18.5C20.57 1.60303 22.25 3.27303 22.25 5.32303V16.233C22.25 18.283 20.57 19.953 18.5 19.953H17.74C17.15 19.953 16.57 20.193 16.15 20.603L14.44 22.293C13.91 22.833 13.2 23.103 12.5 23.103ZM6.5 3.10303C5.26 3.10303 4.25 4.10303 4.25 5.32303V16.233C4.25 17.463 5.26 18.453 6.5 18.453H7.26001C8.25001 18.453 9.20997 18.853 9.90997 19.543L11.62 21.233C12.11 21.713 12.9 21.713 13.39 21.233L15.1 19.543C15.8 18.853 16.76 18.453 17.75 18.453H18.5C19.74 18.453 20.75 17.453 20.75 16.233V5.32303C20.75 4.09303 19.74 3.10303 18.5 3.10303H6.5Z" fill="#7791A9"/>
<path d="M12.5698 10.0528C12.5498 10.0528 12.5198 10.0528 12.4998 10.0528C12.4698 10.0528 12.4298 10.0528 12.3998 10.0528C10.9398 10.0028 9.7998 8.82283 9.7998 7.35283C9.7998 5.86283 11.0098 4.65283 12.4998 4.65283C13.9898 4.65283 15.1998 5.86283 15.1998 7.35283C15.1898 8.82283 14.0498 10.0028 12.5898 10.0528C12.5898 10.0528 12.5798 10.0528 12.5698 10.0528ZM12.4998 6.15283C11.8398 6.15283 11.2998 6.69283 11.2998 7.35283C11.2998 8.00283 11.8098 8.53283 12.4498 8.55283C12.4498 8.54283 12.5098 8.54283 12.5798 8.55283C13.2098 8.51283 13.6998 7.99283 13.6998 7.35283C13.6998 6.69283 13.1598 6.15283 12.4998 6.15283Z" fill="#7791A9"/>
<path d="M12.5 17.0531C11.36 17.0531 10.22 16.7531 9.33002 16.1631C8.49002 15.6031 8 14.7931 8 13.9331C8 13.0731 8.48002 12.2531 9.33002 11.6931C11.11 10.5131 13.89 10.5131 15.66 11.6931C16.5 12.2531 16.99 13.0731 16.99 13.9231C16.99 14.7831 16.51 15.5931 15.66 16.1631C14.78 16.7631 13.64 17.0531 12.5 17.0531ZM10.16 12.9431C9.72997 13.2331 9.5 13.5831 9.5 13.9331C9.5 14.2831 9.73997 14.6331 10.16 14.9231C11.43 15.7731 13.56 15.7731 14.83 14.9231C15.26 14.6331 15.5 14.2831 15.49 13.9331C15.49 13.5831 15.25 13.2331 14.83 12.9431C13.57 12.0931 11.43 12.0931 10.16 12.9431Z" fill="#7791A9"/>
</svg>
