<svg width="46" height="33" viewBox="0 0 46 33" fill="none" xmlns="http://www.w3.org/2000/svg">
<path fill-rule="evenodd" clip-rule="evenodd" d="M7.14029 1.14273C3.95848 1.30036 1.40259 3.79176 1.1961 6.97078C0.998262 10.0165 0.803284 13.7642 0.803284 16.7047C0.803284 19.6453 0.998262 23.393 1.1961 26.4387C1.40259 29.6177 3.95848 32.1091 7.1403 32.2667C11.7478 32.495 18.3332 32.7703 23.2951 32.7703C28.257 32.7703 34.8424 32.495 39.4499 32.2667C42.6317 32.1091 45.1876 29.6177 45.3941 26.4387C45.5919 23.393 45.7869 19.6453 45.7869 16.7047C45.7869 13.7642 45.5919 10.0165 45.3941 6.97078C45.1876 3.79176 42.6317 1.30036 39.4499 1.14273C34.8424 0.914463 28.257 0.63916 23.2951 0.63916C18.3332 0.63916 11.7478 0.914463 7.14029 1.14273ZM31.3279 16.7048L18.4754 23.1311V10.2786L31.3279 16.7048Z" fill="#7791A9"/>
</svg>
